<?xml version="1.0" encoding="UTF-8"?>
<svg width="150px" height="50px" viewBox="0 0 150 50" version="1.1" xmlns="http://www.w3.org/2000/svg" xmlns:xlink="http://www.w3.org/1999/xlink">
    <title>doodle</title>
    <defs>
        <rect id="path-1" x="0" y="0" width="150" height="50"></rect>
        <filter id="filter-3">
            <feColorMatrix in="SourceGraphic" type="matrix" values="0 0 0 0 1.000000 0 0 0 0 0.843137 0 0 0 0 0.403922 0 0 0 1.000000 0"></feColorMatrix>
        </filter>
    </defs>
    <g id="doodle" stroke="none" stroke-width="1" fill="none" fill-rule="evenodd">
        <g>
            <mask id="mask-2" fill="white">
                <use xlink:href="#path-1"></use>
            </mask>
            <g id="Mask"></g>
            <g id="Wordmark" mask="url(#mask-2)">
                <g transform="translate(5.000000, 12.000000)" id="Group-19">
                    <g transform="translate(0.000000, 0.500000)">
                        <path d="M7.34415323,6.70621016 C2.94353526,6.70621016 0.680274653,10.1275033 0.680274653,14.1103432 C0.680274653,18.1721657 2.92255138,21.3333944 7.07436057,21.3333944 C11.4539947,21.3333944 13.8421593,18.0719927 13.8421593,14.1103432 C13.8831278,10.3278493 11.6198672,6.70621016 7.34415323,6.70621016 L7.34415323,6.70621016 Z M13.8831278,17.3515177 L13.8201762,17.3515177 C13.1357022,20.2526818 10.043079,21.9536964 7.13631296,21.9536964 C2.38296607,21.9536964 0.037768442,18.31183 0.037768442,14.1103432 C0.037768442,9.70754731 2.5488386,6.06568088 7.34415323,6.06568088 C10.5826643,6.06568088 13.1357022,8.14716022 13.8001915,10.8287143 L13.8621439,10.8287143 L13.8621439,6.44614564 L14.5266332,6.44614564 L14.5266332,22.3139339 C14.5266332,26.7764484 11.8696752,28.8771918 7.44807336,28.8771918 C4.001722,28.8771918 1.05398744,27.3765232 0.95106654,23.7144295 L1.61555586,23.7144295 C1.73946063,26.9758312 4.33446628,28.2376257 7.40610562,28.2376257 C11.5169463,28.2376257 13.8621439,26.3564924 13.8621439,22.2946699 L13.8621439,17.3515177 L13.8831278,17.3515177 Z" id="Fill-1" fill="#3A2110"></path>
                        <path d="M24.0754946,22.594322 C28.6010166,22.594322 31.0501343,18.7925641 31.0501343,14.6498326 C31.0501343,10.5677829 28.6010166,6.70630648 24.0754946,6.70630648 C19.4680356,6.70630648 17.0598863,10.5677829 17.0598863,14.6498326 C17.0598863,18.7925641 19.4680356,22.594322 24.0754946,22.594322 M24.0754946,6.0657772 C29.037681,6.0657772 31.7156229,10.1882814 31.7156229,14.6498326 C31.7156229,19.1528016 29.037681,23.2348513 24.0345261,23.2348513 C19.0733389,23.2348513 16.3744132,19.1528016 16.3744132,14.6498326 C16.3943978,10.1882814 19.0733389,6.0657772 24.0754946,6.0657772" id="Fill-3" fill="#3A2110"></path>
                        <path d="M40.4340225,22.594322 C44.9795291,22.594322 47.407663,18.7925641 47.407663,14.6498326 C47.407663,10.5677829 44.9585452,6.70630648 40.4340225,6.70630648 C35.8255643,6.70630648 33.4172802,10.5677829 33.4172802,14.6498326 C33.3964311,18.7925641 35.8255643,22.594322 40.4340225,22.594322 M40.4340225,6.0657772 C45.3952096,6.0657772 48.0731516,10.1882814 48.0731516,14.6498326 C48.0731516,19.1528016 45.3952096,23.2348513 40.3920547,23.2348513 C35.4308676,23.2348513 32.7529257,19.1528016 32.7529257,14.6498326 C32.7529257,10.1882814 35.4308676,6.0657772 40.4340225,6.0657772" id="Fill-5" fill="#3A2110"></path>
                        <path d="M56.3552864,6.70621016 C51.6848758,6.70621016 49.7753434,10.8884329 49.7753434,14.6901908 C49.7753434,18.8926407 51.9546685,22.5942257 56.3552864,22.5942257 C60.7359198,22.5942257 63.2469899,18.932132 63.2469899,14.6901908 C63.2270053,9.60737431 60.487111,6.70621016 56.3552864,6.70621016 L56.3552864,6.70621016 Z M63.2270053,0.0630065711 L63.8904954,0.0630065711 L63.8904954,22.8542902 L63.2270053,22.8542902 L63.2270053,18.2521115 L63.1640537,18.2521115 C62.3137072,21.1137843 59.8226217,23.234755 56.3552864,23.234755 C51.8507483,23.234755 49.110854,19.6323798 49.110854,14.6901908 C49.110854,10.0880121 51.6638919,6.06568088 56.3552864,6.06568088 C59.9675103,6.06568088 62.3746603,8.0874417 63.1640537,11.0483244 L63.2270053,11.0483244 L63.2270053,0.0630065711 Z" id="Fill-7" fill="#3A2110"></path>
                        <path d="M67.108822,6.3858492 L69.0183544,6.3858492 L69.0183544,10.2482889 L69.081306,10.2482889 C70.1394928,7.60718922 72.4637066,6.02561168 75.5373444,6.16527596 L75.5373444,8.16680953 C71.7582487,7.96646354 69.184227,10.6480177 69.184227,14.0702741 L69.184227,22.8546755 L67.0878381,22.8546755 L67.0878381,6.3858492 L67.108822,6.3858492 Z" id="Fill-9" fill="#3A2110"></path>
                        <path d="M88.3863694,13.4697177 C88.2824493,10.4481533 86.3309491,7.58648038 82.9475494,7.58648038 C79.5641496,7.58648038 77.6746018,10.4683805 77.3418575,13.4697177 L88.3863694,13.4697177 Z M77.3418575,15.150505 C77.3638406,18.0921236 78.9616127,21.6338171 82.967534,21.6338171 C86.0201879,21.6338171 87.6589285,19.9125752 88.324417,17.4313671 L90.4198067,17.4313671 C89.5284917,21.1734065 87.2652311,23.3348316 82.967534,23.3348316 C77.5496978,23.3348316 75.2664525,19.3125005 75.2664525,14.630376 C75.2664525,10.2882617 77.5496978,5.92592029 82.967534,5.92592029 C88.4693057,5.92592029 90.6486308,10.5483263 90.4827583,15.1707322 L77.3418575,15.1707322 L77.3418575,15.150505 Z" id="Fill-11" fill="#3A2110"></path>
                        <path d="M103.394335,13.8497971 L103.332383,13.8497971 C103.06259,14.3304349 102.128308,14.4903264 101.567739,14.5904994 C98.0174676,15.1905742 93.6178489,15.170347 93.6178489,18.3922573 C93.6178489,20.413055 95.4644297,21.653659 97.4169291,21.653659 C100.591489,21.653659 103.415319,19.7128072 103.373351,16.4908968 L103.373351,13.8497971 L103.394335,13.8497971 Z M92.2678863,11.4283075 C92.4547427,7.56683106 95.2775733,5.90530777 99.1805737,5.90530777 C102.190261,5.90530777 105.470739,6.80686476 105.470739,11.2086975 L105.470739,19.9526444 C105.470739,20.7126108 105.865436,21.1739845 106.695798,21.1739845 C106.923623,21.1739845 107.193416,21.1133027 107.359288,21.0535842 L107.359288,22.7343716 C106.902639,22.8345446 106.570894,22.8547718 105.989341,22.8547718 C103.871968,22.8547718 103.540223,21.7143407 103.540223,19.9728717 L103.477272,19.9728717 C102.024388,22.1140695 100.530536,23.3142191 97.2500574,23.3142191 C94.1154664,23.3142191 91.5204608,21.8145137 91.5204608,18.4924303 C91.5204608,13.8700244 96.1908714,13.7091697 100.696409,13.1890406 C102.418086,12.9896578 103.373351,12.7690846 103.373351,10.948633 C103.373351,8.22758757 101.359899,7.56683106 98.8897972,7.56683106 C96.3157754,7.56683106 94.3852591,8.72748937 94.3233067,11.4080803 L92.2678863,11.4080803 L92.2678863,11.4283075 Z" id="Fill-13" fill="#3A2110"></path>
                        <path d="M115.787211,21.6339134 C120.229797,21.6339134 121.7866,18.0315382 121.7866,14.610245 C121.7866,11.1879886 120.229797,7.5865767 115.787211,7.5865767 C111.822258,7.5865767 110.183518,11.1879886 110.183518,14.610245 C110.183518,18.0315382 111.802273,21.6339134 115.787211,21.6339134 L115.787211,21.6339134 Z M123.863004,22.8542902 L121.952473,22.8542902 L121.952473,19.7123256 L121.89052,19.7123256 C120.998206,21.8544866 118.278296,23.3147007 115.808195,23.3147007 C110.598199,23.3147007 108.128097,19.2721423 108.128097,14.610245 C108.128097,9.94834779 110.598199,5.90578937 115.808195,5.90578937 C118.361233,5.90578937 120.832334,7.14639343 121.723649,9.50816452 L121.7866,9.50816452 L121.7866,0.0630065711 L123.863004,0.0630065711 L123.863004,22.8542902 Z" id="Fill-15" fill="#3A2110"></path>
                        <path d="M137.23163,11.1882776 C137.12771,8.70706949 135.155226,7.58686566 132.768061,7.58686566 C130.92048,7.58686566 128.741155,8.28711345 128.741155,10.4283113 C128.741155,12.2092716 130.858528,12.8498009 132.290428,13.2100384 L135.07229,13.8101132 C137.460454,14.1703507 139.929557,15.5101646 139.929557,18.3718375 C139.929557,21.9539854 136.25538,23.3140265 133.079821,23.3140265 C129.114868,23.3140265 126.394958,21.5340293 126.063213,17.5116982 L128.138618,17.5116982 C128.304491,20.2134795 130.401879,21.6342023 133.182742,21.6342023 C135.134242,21.6342023 137.854152,20.8135543 137.854152,18.5124649 C137.854152,16.5908771 136.005572,15.9705751 134.118023,15.5101646 L131.439082,14.930317 C128.720171,14.2300692 126.664751,13.3294755 126.664751,10.5275211 C126.664751,7.18617367 130.069135,5.90607833 133.079821,5.90607833 C136.484205,5.90607833 139.203115,7.62635694 139.328019,11.2085049 L137.23163,11.2085049 L137.23163,11.1882776 Z" id="Fill-17" fill="#3A2110"></path>
                    </g>
                </g>
            </g>
        </g>
        <g id="sun" transform="translate(3.000000, 2.000000)" filter="url(#filter-3)">
            <g transform="translate(90.174000, 0.000000)">
                <path d="M20.7242,9.96613654 C20.7242,13.0249965 18.245389,15.5036 15.1872,15.5036 C12.129938,15.5036 9.6502,13.0249965 9.6502,9.96613654 C9.6502,6.9082035 12.129938,4.4296 15.1872,4.4296 C18.245389,4.4296 20.7242,6.9082035 20.7242,9.96613654" id="Fill-1" fill="#FFC20E"></path>
                <polygon id="Fill-3" fill="#FFC20E" points="9.6502 4.47787128 8.44549707 6.6444 0.791 2.00278496 4.85733573 -4.79616347e-14"></polygon>
                <polygon id="Fill-8" fill="#FFC20E" points="20.7242 5.03059325 21.4761344 6.6444 28.9506 5.56235276 26.4410992 1.8984"></polygon>
                <polygon id="Fill-10" fill="#FFC20E" points="7.95310377 8.8592 8.2264 11.1703409 1.23989707e-12 12.9724 1.23989707e-12 9.01958326"></polygon>
                <polygon id="Fill-12" fill="#FFC20E" points="22.4686097 9.1756 21.9898 11.6078905 27.967049 13.9216 28.9506 9.4624007"></polygon>
                <polygon id="Fill-5" fill="#FFC20E" points="14.1911357 3.63768195 16.1289596 3.63768195 18.5415834 0.0271831409 13.4666891 0.0271831409"></polygon>
            </g>
        </g>
        <g id="umbrella" transform="translate(21.000000, 0.000000)">
            <polygon id="Fill-33" fill="#FFAF5A" points="13.1600022 40.7120013 15.3326431 40.7120013 20.1600022 11.7992579 18.3502365 11.7120013"></polygon>
            <path d="M20.5440023,0.852162295 C7.74777097,-2.4071264 0,4.73356618 0,4.73356618 C5.92816285,5.03223103 10.5392292,11.8903693 10.5392292,11.8903693 C10.5724023,11.8953264 10.6055755,11.9002835 10.6387486,11.9040013 C11.4238462,10.2570071 14.6416408,4.13871501 20.5440023,0.852162295" id="Fill-34" fill="#FFAF5A"></path>
            <path d="M23.0400025,1.53600017 C24.0635263,4.11429851 25.8388748,9.62242505 25.6527795,16.4302219 C31.9713328,13.2751175 38.2080042,18.048002 38.2080042,18.048002 C38.2080042,18.048002 36.0033961,6.04771281 23.0400025,1.53600017" id="Fill-36" fill="#FFAF5A"></path>
            <path d="M23.1212606,1.50744195 C22.7826298,1.38773467 22.4353794,1.27301519 22.0807406,1.16328351 C21.6078888,1.01739026 21.1399626,0.886460418 20.6794248,0.768000085 C14.7638526,4.07616075 11.538856,10.2323572 10.7520012,11.8895549 C17.8718676,12.8871156 25.7145569,16.5120018 25.7145569,16.5120018 C25.8992646,9.65377202 24.137153,4.10484062 23.1212606,1.50744195" id="Fill-38" fill="#FFD767"></path>
        </g>
    </g>
</svg>